STARTFONT 2.1
COMMENT
COMMENT Converted from OpenType font "rainyhearts.ttf" by "otf2bdf 3.0".
COMMENT
FONT -FreeType-rainyhearts-Medium-R-Normal--17-120-100-100-P-93-ISO10646-1
SIZE 12 100 100
FONTBOUNDINGBOX 13 16 -1 -3
STARTPROPERTIES 19
FOUNDRY "FreeType"
FAMILY_NAME "rainyhearts"
WEIGHT_NAME "Medium"
SLANT "R"
SETWIDTH_NAME "Normal"
ADD_STYLE_NAME ""
PIXEL_SIZE 17
POINT_SIZE 120
RESOLUTION_X 100
RESOLUTION_Y 100
SPACING "P"
AVERAGE_WIDTH 93
CHARSET_REGISTRY "ISO10646"
CHARSET_ENCODING "1"
FONT_ASCENT 12
FONT_DESCENT 3
COPYRIGHT "camellina"
_OTF_FONTFILE "rainyhearts.ttf"
_OTF_PSNAME "rainyhearts"
ENDPROPERTIES
CHARS 317
STARTCHAR 0020
ENCODING 32
SWIDTH 300 0
DWIDTH 5 0
BBX 0 0 0 0
BITMAP
ENDCHAR
STARTCHAR 0021
ENCODING 33
SWIDTH 240 0
DWIDTH 4 0
BBX 3 10 0 0
BITMAP
40
40
40
40
40
40
40
00
A0
40
ENDCHAR
STARTCHAR 0022
ENCODING 34
SWIDTH 300 0
DWIDTH 5 0
BBX 4 4 0 6
BITMAP
50
50
50
A0
ENDCHAR
STARTCHAR 0023
ENCODING 35
SWIDTH 540 0
DWIDTH 9 0
BBX 7 9 0 1
BITMAP
48
48
48
FE
48
48
FE
48
48
ENDCHAR
STARTCHAR 0024
ENCODING 36
SWIDTH 420 0
DWIDTH 7 0
BBX 6 12 0 -1
BITMAP
10
78
FC
94
90
78
14
14
94
94
78
10
ENDCHAR
STARTCHAR 0025
ENCODING 37
SWIDTH 720 0
DWIDTH 12 0
BBX 11 10 0 0
BITMAP
6000
F200
9200
9400
6400
0800
09C0
1220
1220
21C0
ENDCHAR
STARTCHAR 0026
ENCODING 38
SWIDTH 540 0
DWIDTH 9 0
BBX 7 10 0 0
BITMAP
70
F8
88
88
50
20
54
88
94
62
ENDCHAR
STARTCHAR 0027
ENCODING 39
SWIDTH 180 0
DWIDTH 3 0
BBX 2 4 0 6
BITMAP
40
40
40
80
ENDCHAR
STARTCHAR 0028
ENCODING 40
SWIDTH 240 0
DWIDTH 4 0
BBX 3 12 0 -2
BITMAP
20
60
40
80
80
80
80
80
80
80
40
20
ENDCHAR
STARTCHAR 0029
ENCODING 41
SWIDTH 240 0
DWIDTH 4 0
BBX 3 12 0 -2
BITMAP
80
C0
40
20
20
20
20
20
20
20
40
80
ENDCHAR
STARTCHAR 002A
ENCODING 42
SWIDTH 360 0
DWIDTH 6 0
BBX 5 6 0 5
BITMAP
50
F8
F8
70
F8
50
ENDCHAR
STARTCHAR 002B
ENCODING 43
SWIDTH 420 0
DWIDTH 7 0
BBX 5 5 1 2
BITMAP
20
20
F8
20
20
ENDCHAR
STARTCHAR 002C
ENCODING 44
SWIDTH 180 0
DWIDTH 3 0
BBX 2 2 0 -1
BITMAP
40
80
ENDCHAR
STARTCHAR 002D
ENCODING 45
SWIDTH 300 0
DWIDTH 5 0
BBX 4 1 0 3
BITMAP
F0
ENDCHAR
STARTCHAR 002E
ENCODING 46
SWIDTH 120 0
DWIDTH 2 0
BBX 1 1 0 0
BITMAP
80
ENDCHAR
STARTCHAR 002F
ENCODING 47
SWIDTH 360 0
DWIDTH 6 0
BBX 5 10 0 0
BITMAP
08
08
08
10
10
20
20
40
40
80
ENDCHAR
STARTCHAR 0030
ENCODING 48
SWIDTH 420 0
DWIDTH 7 0
BBX 5 10 1 0
BITMAP
70
F8
88
88
88
88
88
88
88
70
ENDCHAR
STARTCHAR 0031
ENCODING 49
SWIDTH 300 0
DWIDTH 5 0
BBX 3 10 1 0
BITMAP
40
C0
C0
40
40
40
40
40
40
E0
ENDCHAR
STARTCHAR 0032
ENCODING 50
SWIDTH 420 0
DWIDTH 7 0
BBX 5 10 1 0
BITMAP
70
F8
88
08
08
10
20
40
80
F8
ENDCHAR
STARTCHAR 0033
ENCODING 51
SWIDTH 420 0
DWIDTH 7 0
BBX 5 10 1 0
BITMAP
70
F8
88
08
30
08
08
08
88
70
ENDCHAR
STARTCHAR 0034
ENCODING 52
SWIDTH 360 0
DWIDTH 6 0
BBX 4 10 1 0
BITMAP
10
90
90
90
90
90
F0
10
10
10
ENDCHAR
STARTCHAR 0035
ENCODING 53
SWIDTH 420 0
DWIDTH 7 0
BBX 5 10 1 0
BITMAP
78
F8
80
80
F0
08
08
08
88
70
ENDCHAR
STARTCHAR 0036
ENCODING 54
SWIDTH 420 0
DWIDTH 7 0
BBX 5 10 1 0
BITMAP
70
F8
88
80
F0
88
88
88
88
70
ENDCHAR
STARTCHAR 0037
ENCODING 55
SWIDTH 420 0
DWIDTH 7 0
BBX 5 10 1 0
BITMAP
F0
F8
08
08
08
10
20
20
20
20
ENDCHAR
STARTCHAR 0038
ENCODING 56
SWIDTH 420 0
DWIDTH 7 0
BBX 5 10 1 0
BITMAP
70
F8
88
88
88
70
88
88
88
70
ENDCHAR
STARTCHAR 0039
ENCODING 57
SWIDTH 420 0
DWIDTH 7 0
BBX 5 10 1 0
BITMAP
70
F8
88
88
88
78
08
08
88
70
ENDCHAR
STARTCHAR 003A
ENCODING 58
SWIDTH 120 0
DWIDTH 2 0
BBX 1 6 0 0
BITMAP
80
00
00
00
00
80
ENDCHAR
STARTCHAR 003B
ENCODING 59
SWIDTH 120 0
DWIDTH 2 0
BBX 2 8 -1 -2
BITMAP
40
00
00
00
00
40
40
80
ENDCHAR
STARTCHAR 003C
ENCODING 60
SWIDTH 360 0
DWIDTH 6 0
BBX 5 5 0 2
BITMAP
18
60
80
60
18
ENDCHAR
STARTCHAR 003D
ENCODING 61
SWIDTH 360 0
DWIDTH 6 0
BBX 5 4 0 3
BITMAP
F8
00
00
F8
ENDCHAR
STARTCHAR 003E
ENCODING 62
SWIDTH 360 0
DWIDTH 6 0
BBX 5 5 0 2
BITMAP
C0
30
08
30
C0
ENDCHAR
STARTCHAR 003F
ENCODING 63
SWIDTH 360 0
DWIDTH 6 0
BBX 5 10 0 0
BITMAP
70
F8
88
88
10
20
20
00
50
20
ENDCHAR
STARTCHAR 0040
ENCODING 64
SWIDTH 660 0
DWIDTH 11 0
BBX 10 11 0 -1
BITMAP
3E00
7F80
4180
9CC0
A2C0
A2C0
A2C0
A2C0
9D80
4000
3F80
ENDCHAR
STARTCHAR 0041
ENCODING 65
SWIDTH 540 0
DWIDTH 9 0
BBX 6 10 1 0
BITMAP
30
78
48
84
84
FC
84
84
84
84
ENDCHAR
STARTCHAR 0042
ENCODING 66
SWIDTH 540 0
DWIDTH 9 0
BBX 6 10 1 0
BITMAP
78
FC
84
84
84
F8
84
84
84
78
ENDCHAR
STARTCHAR 0043
ENCODING 67
SWIDTH 600 0
DWIDTH 10 0
BBX 8 10 1 0
BITMAP
3C
7F
43
80
80
80
80
80
43
3C
ENDCHAR
STARTCHAR 0044
ENCODING 68
SWIDTH 600 0
DWIDTH 10 0
BBX 8 10 1 0
BITMAP
78
FC
84
83
83
83
83
83
84
78
ENDCHAR
STARTCHAR 0045
ENCODING 69
SWIDTH 540 0
DWIDTH 9 0
BBX 6 10 1 0
BITMAP
7C
FC
80
80
80
F8
80
80
80
7C
ENDCHAR
STARTCHAR 0046
ENCODING 70
SWIDTH 540 0
DWIDTH 9 0
BBX 6 10 1 0
BITMAP
7C
FC
80
80
80
F8
80
80
80
80
ENDCHAR
STARTCHAR 0047
ENCODING 71
SWIDTH 600 0
DWIDTH 10 0
BBX 8 10 1 0
BITMAP
7C
FF
83
80
80
9C
83
83
83
7C
ENDCHAR
STARTCHAR 0048
ENCODING 72
SWIDTH 600 0
DWIDTH 10 0
BBX 8 10 1 0
BITMAP
83
83
83
83
BF
83
83
83
83
83
ENDCHAR
STARTCHAR 0049
ENCODING 73
SWIDTH 240 0
DWIDTH 4 0
BBX 3 10 0 0
BITMAP
E0
E0
40
40
40
40
40
40
40
E0
ENDCHAR
STARTCHAR 004A
ENCODING 74
SWIDTH 420 0
DWIDTH 7 0
BBX 5 10 1 0
BITMAP
38
38
10
10
10
10
10
90
90
60
ENDCHAR
STARTCHAR 004B
ENCODING 75
SWIDTH 600 0
DWIDTH 10 0
BBX 8 10 1 0
BITMAP
83
83
83
84
88
B0
88
84
83
83
ENDCHAR
STARTCHAR 004C
ENCODING 76
SWIDTH 420 0
DWIDTH 7 0
BBX 5 10 1 0
BITMAP
80
80
80
80
80
80
80
80
80
78
ENDCHAR
STARTCHAR 004D
ENCODING 77
SWIDTH 660 0
DWIDTH 11 0
BBX 9 10 1 0
BITMAP
7700
FF80
8980
8980
8980
8980
8180
8180
8180
8180
ENDCHAR
STARTCHAR 004E
ENCODING 78
SWIDTH 600 0
DWIDTH 10 0
BBX 8 10 1 0
BITMAP
43
E3
A3
A3
93
93
93
8B
8B
84
ENDCHAR
STARTCHAR 004F
ENCODING 79
SWIDTH 660 0
DWIDTH 11 0
BBX 9 10 1 0
BITMAP
3C00
7F00
4300
8180
8180
8180
8180
8180
4300
3C00
ENDCHAR
STARTCHAR 0050
ENCODING 80
SWIDTH 540 0
DWIDTH 9 0
BBX 6 10 1 0
BITMAP
78
FC
84
84
84
F8
80
80
80
80
ENDCHAR
STARTCHAR 0051
ENCODING 81
SWIDTH 720 0
DWIDTH 12 0
BBX 10 10 1 0
BITMAP
3C00
7F00
4300
8180
8180
8180
8180
8580
4300
3DC0
ENDCHAR
STARTCHAR 0052
ENCODING 82
SWIDTH 660 0
DWIDTH 11 0
BBX 9 10 1 0
BITMAP
7C00
FF00
8300
8300
8300
BC00
8300
8300
8300
8380
ENDCHAR
STARTCHAR 0053
ENCODING 83
SWIDTH 600 0
DWIDTH 10 0
BBX 8 10 1 0
BITMAP
7C
FF
83
80
7C
03
03
83
83
7C
ENDCHAR
STARTCHAR 0054
ENCODING 84
SWIDTH 600 0
DWIDTH 10 0
BBX 8 10 1 0
BITMAP
FF
FF
10
10
10
10
10
10
10
10
ENDCHAR
STARTCHAR 0055
ENCODING 85
SWIDTH 600 0
DWIDTH 10 0
BBX 8 10 1 0
BITMAP
83
83
83
83
83
83
83
83
44
38
ENDCHAR
STARTCHAR 0056
ENCODING 86
SWIDTH 600 0
DWIDTH 10 0
BBX 8 10 1 0
BITMAP
83
83
83
83
83
83
44
44
28
10
ENDCHAR
STARTCHAR 0057
ENCODING 87
SWIDTH 660 0
DWIDTH 11 0
BBX 9 10 1 0
BITMAP
8180
8180
8180
8180
8180
8980
8980
8980
8980
7700
ENDCHAR
STARTCHAR 0058
ENCODING 88
SWIDTH 540 0
DWIDTH 9 0
BBX 6 10 1 0
BITMAP
84
84
84
48
30
48
84
84
84
84
ENDCHAR
STARTCHAR 0059
ENCODING 89
SWIDTH 600 0
DWIDTH 10 0
BBX 8 10 1 0
BITMAP
83
83
83
83
44
28
10
10
10
10
ENDCHAR
STARTCHAR 005A
ENCODING 90
SWIDTH 540 0
DWIDTH 9 0
BBX 6 10 1 0
BITMAP
F8
FC
04
08
10
20
40
80
80
7C
ENDCHAR
STARTCHAR 005B
ENCODING 91
SWIDTH 240 0
DWIDTH 4 0
BBX 3 12 0 -2
BITMAP
60
E0
80
80
80
80
80
80
80
80
80
60
ENDCHAR
STARTCHAR 005C
ENCODING 92
SWIDTH 360 0
DWIDTH 6 0
BBX 5 10 0 0
BITMAP
80
80
80
40
40
20
20
10
10
08
ENDCHAR
STARTCHAR 005D
ENCODING 93
SWIDTH 240 0
DWIDTH 4 0
BBX 3 12 0 -2
BITMAP
C0
E0
20
20
20
20
20
20
20
20
20
C0
ENDCHAR
STARTCHAR 005E
ENCODING 94
SWIDTH 360 0
DWIDTH 6 0
BBX 5 4 0 6
BITMAP
20
70
50
88
ENDCHAR
STARTCHAR 005F
ENCODING 95
SWIDTH 540 0
DWIDTH 9 0
BBX 7 1 0 -2
BITMAP
FE
ENDCHAR
STARTCHAR 0060
ENCODING 96
SWIDTH 240 0
DWIDTH 4 0
BBX 2 3 1 7
BITMAP
80
C0
40
ENDCHAR
STARTCHAR 0061
ENCODING 97
SWIDTH 540 0
DWIDTH 9 0
BBX 6 6 1 0
BITMAP
70
88
88
88
88
74
ENDCHAR
STARTCHAR 0062
ENCODING 98
SWIDTH 420 0
DWIDTH 7 0
BBX 5 10 1 0
BITMAP
80
80
80
80
F0
88
88
88
88
70
ENDCHAR
STARTCHAR 0063
ENCODING 99
SWIDTH 420 0
DWIDTH 7 0
BBX 5 6 1 0
BITMAP
70
88
80
80
88
70
ENDCHAR
STARTCHAR 0064
ENCODING 100
SWIDTH 420 0
DWIDTH 7 0
BBX 5 10 1 0
BITMAP
08
08
08
08
78
88
88
88
88
70
ENDCHAR
STARTCHAR 0065
ENCODING 101
SWIDTH 420 0
DWIDTH 7 0
BBX 5 6 1 0
BITMAP
70
88
F0
80
88
70
ENDCHAR
STARTCHAR 0066
ENCODING 102
SWIDTH 420 0
DWIDTH 7 0
BBX 6 12 0 -3
BITMAP
18
18
24
20
70
20
20
20
20
20
A0
40
ENDCHAR
STARTCHAR 0067
ENCODING 103
SWIDTH 420 0
DWIDTH 7 0
BBX 5 9 1 -3
BITMAP
70
88
88
88
78
08
08
88
70
ENDCHAR
STARTCHAR 0068
ENCODING 104
SWIDTH 420 0
DWIDTH 7 0
BBX 5 10 1 0
BITMAP
80
80
80
80
F0
88
88
88
88
88
ENDCHAR
STARTCHAR 0069
ENCODING 105
SWIDTH 240 0
DWIDTH 4 0
BBX 3 10 0 0
BITMAP
A0
E0
40
00
40
40
40
40
40
40
ENDCHAR
STARTCHAR 006A
ENCODING 106
SWIDTH 240 0
DWIDTH 4 0
BBX 4 13 -1 -3
BITMAP
50
70
20
00
20
20
20
20
20
20
20
A0
40
ENDCHAR
STARTCHAR 006B
ENCODING 107
SWIDTH 420 0
DWIDTH 7 0
BBX 5 10 1 0
BITMAP
80
80
80
80
88
90
E0
90
88
88
ENDCHAR
STARTCHAR 006C
ENCODING 108
SWIDTH 300 0
DWIDTH 5 0
BBX 3 10 1 0
BITMAP
80
80
80
80
80
80
80
80
A0
40
ENDCHAR
STARTCHAR 006D
ENCODING 109
SWIDTH 660 0
DWIDTH 11 0
BBX 9 6 1 0
BITMAP
7700
8980
8980
8980
8980
8980
ENDCHAR
STARTCHAR 006E
ENCODING 110
SWIDTH 420 0
DWIDTH 7 0
BBX 5 6 1 0
BITMAP
70
88
88
88
88
88
ENDCHAR
STARTCHAR 006F
ENCODING 111
SWIDTH 420 0
DWIDTH 7 0
BBX 5 6 1 0
BITMAP
70
88
88
88
88
70
ENDCHAR
STARTCHAR 0070
ENCODING 112
SWIDTH 420 0
DWIDTH 7 0
BBX 5 9 1 -3
BITMAP
70
88
88
88
88
F0
80
80
80
ENDCHAR
STARTCHAR 0071
ENCODING 113
SWIDTH 420 0
DWIDTH 7 0
BBX 5 9 1 -3
BITMAP
70
88
88
88
88
78
08
08
08
ENDCHAR
STARTCHAR 0072
ENCODING 114
SWIDTH 360 0
DWIDTH 6 0
BBX 4 6 1 0
BITMAP
B0
C0
80
80
80
80
ENDCHAR
STARTCHAR 0073
ENCODING 115
SWIDTH 420 0
DWIDTH 7 0
BBX 5 6 1 0
BITMAP
70
80
70
08
88
70
ENDCHAR
STARTCHAR 0074
ENCODING 116
SWIDTH 300 0
DWIDTH 5 0
BBX 4 9 0 0
BITMAP
40
40
40
F0
40
40
40
40
30
ENDCHAR
STARTCHAR 0075
ENCODING 117
SWIDTH 420 0
DWIDTH 7 0
BBX 5 6 1 0
BITMAP
88
88
88
88
98
68
ENDCHAR
STARTCHAR 0076
ENCODING 118
SWIDTH 420 0
DWIDTH 7 0
BBX 5 6 1 0
BITMAP
88
88
88
50
50
20
ENDCHAR
STARTCHAR 0077
ENCODING 119
SWIDTH 660 0
DWIDTH 11 0
BBX 9 6 1 0
BITMAP
8980
8980
8980
8980
8980
7700
ENDCHAR
STARTCHAR 0078
ENCODING 120
SWIDTH 420 0
DWIDTH 7 0
BBX 5 6 1 0
BITMAP
88
88
70
88
88
88
ENDCHAR
STARTCHAR 0079
ENCODING 121
SWIDTH 420 0
DWIDTH 7 0
BBX 5 9 1 -3
BITMAP
88
88
88
88
78
08
08
88
70
ENDCHAR
STARTCHAR 007A
ENCODING 122
SWIDTH 420 0
DWIDTH 7 0
BBX 5 6 1 0
BITMAP
F0
08
10
20
40
F8
ENDCHAR
STARTCHAR 007B
ENCODING 123
SWIDTH 240 0
DWIDTH 4 0
BBX 3 12 0 -2
BITMAP
20
60
40
40
40
40
80
40
40
40
40
20
ENDCHAR
STARTCHAR 007C
ENCODING 124
SWIDTH 180 0
DWIDTH 3 0
BBX 1 14 1 -3
BITMAP
80
80
80
80
80
80
80
80
80
80
80
80
80
80
ENDCHAR
STARTCHAR 007D
ENCODING 125
SWIDTH 240 0
DWIDTH 4 0
BBX 3 12 0 -2
BITMAP
80
C0
40
40
40
40
20
40
40
40
40
80
ENDCHAR
STARTCHAR 007E
ENCODING 126
SWIDTH 420 0
DWIDTH 7 0
BBX 6 2 0 4
BITMAP
64
98
ENDCHAR
STARTCHAR 00A1
ENCODING 161
SWIDTH 780 0
DWIDTH 13 0
BBX 12 10 0 0
BITMAP
71E0
FBF0
8A10
8410
8010
4020
20C0
1180
0A00
0400
ENDCHAR
STARTCHAR 00A2
ENCODING 162
SWIDTH 780 0
DWIDTH 13 0
BBX 12 10 0 0
BITMAP
71E0
FBF0
8A10
8410
8010
4020
20C0
1180
0A00
0400
ENDCHAR
STARTCHAR 00A3
ENCODING 163
SWIDTH 780 0
DWIDTH 13 0
BBX 12 10 0 0
BITMAP
71E0
FBF0
8A10
8410
8010
4020
20C0
1180
0A00
0400
ENDCHAR
STARTCHAR 00A4
ENCODING 164
SWIDTH 780 0
DWIDTH 13 0
BBX 12 10 0 0
BITMAP
71E0
FBF0
8A10
8410
8010
4020
20C0
1180
0A00
0400
ENDCHAR
STARTCHAR 00A5
ENCODING 165
SWIDTH 780 0
DWIDTH 13 0
BBX 12 10 0 0
BITMAP
71E0
FBF0
8A10
8410
8010
4020
20C0
1180
0A00
0400
ENDCHAR
STARTCHAR 00A6
ENCODING 166
SWIDTH 780 0
DWIDTH 13 0
BBX 12 10 0 0
BITMAP
71E0
FBF0
8A10
8410
8010
4020
20C0
1180
0A00
0400
ENDCHAR
STARTCHAR 00A7
ENCODING 167
SWIDTH 780 0
DWIDTH 13 0
BBX 12 10 0 0
BITMAP
71E0
FBF0
8A10
8410
8010
4020
20C0
1180
0A00
0400
ENDCHAR
STARTCHAR 00A8
ENCODING 168
SWIDTH 780 0
DWIDTH 13 0
BBX 12 10 0 0
BITMAP
71E0
FBF0
8A10
8410
8010
4020
20C0
1180
0A00
0400
ENDCHAR
STARTCHAR 00A9
ENCODING 169
SWIDTH 660 0
DWIDTH 11 0
BBX 10 11 0 0
BITMAP
3E00
4180
DDC0
9CC0
A2C0
A0C0
A0C0
A2C0
9CC0
4180
3E00
ENDCHAR
STARTCHAR 00AA
ENCODING 170
SWIDTH 780 0
DWIDTH 13 0
BBX 12 10 0 0
BITMAP
71E0
FBF0
8A10
8410
8010
4020
20C0
1180
0A00
0400
ENDCHAR
STARTCHAR 00AB
ENCODING 171
SWIDTH 780 0
DWIDTH 13 0
BBX 12 10 0 0
BITMAP
71E0
FBF0
8A10
8410
8010
4020
20C0
1180
0A00
0400
ENDCHAR
STARTCHAR 00AC
ENCODING 172
SWIDTH 780 0
DWIDTH 13 0
BBX 12 10 0 0
BITMAP
71E0
FBF0
8A10
8410
8010
4020
20C0
1180
0A00
0400
ENDCHAR
STARTCHAR 00AE
ENCODING 174
SWIDTH 660 0
DWIDTH 11 0
BBX 10 11 0 0
BITMAP
3E00
4180
C1C0
80C0
94C0
9AC0
90C0
90C0
80C0
4180
3E00
ENDCHAR
STARTCHAR 00AF
ENCODING 175
SWIDTH 780 0
DWIDTH 13 0
BBX 12 10 0 0
BITMAP
71E0
FBF0
8A10
8410
8010
4020
20C0
1180
0A00
0400
ENDCHAR
STARTCHAR 00B0
ENCODING 176
SWIDTH 780 0
DWIDTH 13 0
BBX 12 10 0 0
BITMAP
71E0
FBF0
8A10
8410
8010
4020
20C0
1180
0A00
0400
ENDCHAR
STARTCHAR 00B1
ENCODING 177
SWIDTH 780 0
DWIDTH 13 0
BBX 12 10 0 0
BITMAP
71E0
FBF0
8A10
8410
8010
4020
20C0
1180
0A00
0400
ENDCHAR
STARTCHAR 00B2
ENCODING 178
SWIDTH 780 0
DWIDTH 13 0
BBX 12 10 0 0
BITMAP
71E0
FBF0
8A10
8410
8010
4020
20C0
1180
0A00
0400
ENDCHAR
STARTCHAR 00B3
ENCODING 179
SWIDTH 780 0
DWIDTH 13 0
BBX 12 10 0 0
BITMAP
71E0
FBF0
8A10
8410
8010
4020
20C0
1180
0A00
0400
ENDCHAR
STARTCHAR 00B4
ENCODING 180
SWIDTH 780 0
DWIDTH 13 0
BBX 12 10 0 0
BITMAP
71E0
FBF0
8A10
8410
8010
4020
20C0
1180
0A00
0400
ENDCHAR
STARTCHAR 00B5
ENCODING 181
SWIDTH 780 0
DWIDTH 13 0
BBX 12 10 0 0
BITMAP
71E0
FBF0
8A10
8410
8010
4020
20C0
1180
0A00
0400
ENDCHAR
STARTCHAR 00B6
ENCODING 182
SWIDTH 780 0
DWIDTH 13 0
BBX 12 10 0 0
BITMAP
71E0
FBF0
8A10
8410
8010
4020
20C0
1180
0A00
0400
ENDCHAR
STARTCHAR 00B7
ENCODING 183
SWIDTH 780 0
DWIDTH 13 0
BBX 12 10 0 0
BITMAP
71E0
FBF0
8A10
8410
8010
4020
20C0
1180
0A00
0400
ENDCHAR
STARTCHAR 00B8
ENCODING 184
SWIDTH 780 0
DWIDTH 13 0
BBX 12 10 0 0
BITMAP
71E0
FBF0
8A10
8410
8010
4020
20C0
1180
0A00
0400
ENDCHAR
STARTCHAR 00B9
ENCODING 185
SWIDTH 780 0
DWIDTH 13 0
BBX 12 10 0 0
BITMAP
71E0
FBF0
8A10
8410
8010
4020
20C0
1180
0A00
0400
ENDCHAR
STARTCHAR 00BA
ENCODING 186
SWIDTH 780 0
DWIDTH 13 0
BBX 12 10 0 0
BITMAP
71E0
FBF0
8A10
8410
8010
4020
20C0
1180
0A00
0400
ENDCHAR
STARTCHAR 00BB
ENCODING 187
SWIDTH 780 0
DWIDTH 13 0
BBX 12 10 0 0
BITMAP
71E0
FBF0
8A10
8410
8010
4020
20C0
1180
0A00
0400
ENDCHAR
STARTCHAR 00BC
ENCODING 188
SWIDTH 780 0
DWIDTH 13 0
BBX 12 10 0 0
BITMAP
71E0
FBF0
8A10
8410
8010
4020
20C0
1180
0A00
0400
ENDCHAR
STARTCHAR 00BD
ENCODING 189
SWIDTH 780 0
DWIDTH 13 0
BBX 12 10 0 0
BITMAP
71E0
FBF0
8A10
8410
8010
4020
20C0
1180
0A00
0400
ENDCHAR
STARTCHAR 00BE
ENCODING 190
SWIDTH 780 0
DWIDTH 13 0
BBX 12 10 0 0
BITMAP
71E0
FBF0
8A10
8410
8010
4020
20C0
1180
0A00
0400
ENDCHAR
STARTCHAR 00BF
ENCODING 191
SWIDTH 780 0
DWIDTH 13 0
BBX 12 10 0 0
BITMAP
71E0
FBF0
8A10
8410
8010
4020
20C0
1180
0A00
0400
ENDCHAR
STARTCHAR 00C0
ENCODING 192
SWIDTH 540 0
DWIDTH 9 0
BBX 6 13 1 0
BITMAP
20
10
00
30
78
48
84
84
FC
84
84
84
84
ENDCHAR
STARTCHAR 00C1
ENCODING 193
SWIDTH 540 0
DWIDTH 9 0
BBX 6 13 1 0
BITMAP
08
10
00
30
78
48
84
84
FC
84
84
84
84
ENDCHAR
STARTCHAR 00C2
ENCODING 194
SWIDTH 540 0
DWIDTH 9 0
BBX 6 13 1 0
BITMAP
30
48
00
30
78
48
84
84
FC
84
84
84
84
ENDCHAR
STARTCHAR 00C3
ENCODING 195
SWIDTH 540 0
DWIDTH 9 0
BBX 6 13 1 0
BITMAP
28
50
00
30
78
48
84
84
FC
84
84
84
84
ENDCHAR
STARTCHAR 00C4
ENCODING 196
SWIDTH 540 0
DWIDTH 9 0
BBX 6 12 1 0
BITMAP
48
00
30
78
48
84
84
FC
84
84
84
84
ENDCHAR
STARTCHAR 00C5
ENCODING 197
SWIDTH 540 0
DWIDTH 9 0
BBX 6 13 1 0
BITMAP
30
48
48
30
78
48
84
84
FC
84
84
84
84
ENDCHAR
STARTCHAR 00C7
ENCODING 199
SWIDTH 600 0
DWIDTH 10 0
BBX 8 13 1 -3
BITMAP
3C
7F
43
80
80
80
80
80
43
3C
10
08
10
ENDCHAR
STARTCHAR 00C8
ENCODING 200
SWIDTH 540 0
DWIDTH 9 0
BBX 6 13 1 0
BITMAP
20
10
00
7C
FC
80
80
80
F8
80
80
80
7C
ENDCHAR
STARTCHAR 00C9
ENCODING 201
SWIDTH 540 0
DWIDTH 9 0
BBX 6 13 1 0
BITMAP
08
10
00
7C
FC
80
80
80
F8
80
80
80
7C
ENDCHAR
STARTCHAR 00CA
ENCODING 202
SWIDTH 540 0
DWIDTH 9 0
BBX 6 13 1 0
BITMAP
10
28
00
7C
FC
80
80
80
F8
80
80
80
7C
ENDCHAR
STARTCHAR 00CB
ENCODING 203
SWIDTH 540 0
DWIDTH 9 0
BBX 6 12 1 0
BITMAP
28
00
7C
FC
80
80
80
F8
80
80
80
7C
ENDCHAR
STARTCHAR 00CC
ENCODING 204
SWIDTH 240 0
DWIDTH 4 0
BBX 3 13 0 0
BITMAP
80
40
00
E0
E0
40
40
40
40
40
40
40
E0
ENDCHAR
STARTCHAR 00CD
ENCODING 205
SWIDTH 240 0
DWIDTH 4 0
BBX 3 13 0 0
BITMAP
20
40
00
E0
E0
40
40
40
40
40
40
40
E0
ENDCHAR
STARTCHAR 00CE
ENCODING 206
SWIDTH 240 0
DWIDTH 4 0
BBX 3 13 0 0
BITMAP
40
A0
00
E0
E0
40
40
40
40
40
40
40
E0
ENDCHAR
STARTCHAR 00CF
ENCODING 207
SWIDTH 240 0
DWIDTH 4 0
BBX 3 12 0 0
BITMAP
A0
00
E0
E0
40
40
40
40
40
40
40
E0
ENDCHAR
STARTCHAR 00D0
ENCODING 208
SWIDTH 600 0
DWIDTH 10 0
BBX 9 10 0 0
BITMAP
3C00
7E00
4200
4180
4180
F980
4180
4180
4200
3C00
ENDCHAR
STARTCHAR 00D1
ENCODING 209
SWIDTH 600 0
DWIDTH 10 0
BBX 8 13 1 0
BITMAP
14
28
00
43
E3
A3
A3
93
93
93
8B
8B
84
ENDCHAR
STARTCHAR 00D2
ENCODING 210
SWIDTH 660 0
DWIDTH 11 0
BBX 9 13 1 0
BITMAP
1000
0800
0000
3C00
7F00
4300
8180
8180
8180
8180
8180
4300
3C00
ENDCHAR
STARTCHAR 00D3
ENCODING 211
SWIDTH 660 0
DWIDTH 11 0
BBX 9 13 1 0
BITMAP
0800
1000
0000
3C00
7F00
4300
8180
8180
8180
8180
8180
4300
3C00
ENDCHAR
STARTCHAR 00D4
ENCODING 212
SWIDTH 660 0
DWIDTH 11 0
BBX 9 13 1 0
BITMAP
1800
2400
0000
3C00
7F00
4300
8180
8180
8180
8180
8180
4300
3C00
ENDCHAR
STARTCHAR 00D5
ENCODING 213
SWIDTH 660 0
DWIDTH 11 0
BBX 9 13 1 0
BITMAP
1400
2800
0000
3C00
7F00
4300
8180
8180
8180
8180
8180
4300
3C00
ENDCHAR
STARTCHAR 00D6
ENCODING 214
SWIDTH 660 0
DWIDTH 11 0
BBX 9 12 1 0
BITMAP
2400
0000
3C00
7F00
4300
8180
8180
8180
8180
8180
4300
3C00
ENDCHAR
STARTCHAR 00D7
ENCODING 215
SWIDTH 780 0
DWIDTH 13 0
BBX 12 10 0 0
BITMAP
71E0
FBF0
8A10
8410
8010
4020
20C0
1180
0A00
0400
ENDCHAR
STARTCHAR 00D8
ENCODING 216
SWIDTH 660 0
DWIDTH 11 0
BBX 9 10 1 0
BITMAP
3D80
7F80
4300
8580
8980
8980
9180
A180
4300
BC00
ENDCHAR
STARTCHAR 00D9
ENCODING 217
SWIDTH 600 0
DWIDTH 10 0
BBX 8 13 1 0
BITMAP
20
10
00
83
83
83
83
83
83
83
83
44
38
ENDCHAR
STARTCHAR 00DA
ENCODING 218
SWIDTH 600 0
DWIDTH 10 0
BBX 8 13 1 0
BITMAP
08
10
00
83
83
83
83
83
83
83
83
44
38
ENDCHAR
STARTCHAR 00DB
ENCODING 219
SWIDTH 600 0
DWIDTH 10 0
BBX 8 13 1 0
BITMAP
10
28
00
83
83
83
83
83
83
83
83
44
38
ENDCHAR
STARTCHAR 00DC
ENCODING 220
SWIDTH 600 0
DWIDTH 10 0
BBX 8 12 1 0
BITMAP
28
00
83
83
83
83
83
83
83
83
44
38
ENDCHAR
STARTCHAR 00DD
ENCODING 221
SWIDTH 600 0
DWIDTH 10 0
BBX 8 13 1 0
BITMAP
08
10
00
83
83
83
83
44
28
10
10
10
10
ENDCHAR
STARTCHAR 00DE
ENCODING 222
SWIDTH 780 0
DWIDTH 13 0
BBX 12 10 0 0
BITMAP
71E0
FBF0
8A10
8410
8010
4020
20C0
1180
0A00
0400
ENDCHAR
STARTCHAR 00DF
ENCODING 223
SWIDTH 540 0
DWIDTH 9 0
BBX 6 12 1 -1
BITMAP
70
88
88
88
88
B0
88
84
84
A4
98
80
ENDCHAR
STARTCHAR 00E0
ENCODING 224
SWIDTH 540 0
DWIDTH 9 0
BBX 6 10 1 0
BITMAP
40
60
20
00
70
88
88
88
88
74
ENDCHAR
STARTCHAR 00E1
ENCODING 225
SWIDTH 540 0
DWIDTH 9 0
BBX 6 10 1 0
BITMAP
10
30
20
00
70
88
88
88
88
74
ENDCHAR
STARTCHAR 00E2
ENCODING 226
SWIDTH 540 0
DWIDTH 9 0
BBX 6 10 1 0
BITMAP
20
70
50
00
70
88
88
88
88
74
ENDCHAR
STARTCHAR 00E3
ENCODING 227
SWIDTH 540 0
DWIDTH 9 0
BBX 6 10 1 0
BITMAP
28
78
50
00
70
88
88
88
88
74
ENDCHAR
STARTCHAR 00E4
ENCODING 228
SWIDTH 540 0
DWIDTH 9 0
BBX 6 9 1 0
BITMAP
50
50
00
70
88
88
88
88
74
ENDCHAR
STARTCHAR 00E5
ENCODING 229
SWIDTH 540 0
DWIDTH 9 0
BBX 6 10 1 0
BITMAP
20
70
50
20
70
88
88
88
88
74
ENDCHAR
STARTCHAR 00E6
ENCODING 230
SWIDTH 780 0
DWIDTH 13 0
BBX 12 10 0 0
BITMAP
71E0
FBF0
8A10
8410
8010
4020
20C0
1180
0A00
0400
ENDCHAR
STARTCHAR 00E7
ENCODING 231
SWIDTH 420 0
DWIDTH 7 0
BBX 5 9 1 -3
BITMAP
70
88
80
80
88
70
20
10
20
ENDCHAR
STARTCHAR 00E8
ENCODING 232
SWIDTH 420 0
DWIDTH 7 0
BBX 5 10 1 0
BITMAP
40
60
20
00
70
88
F0
80
88
70
ENDCHAR
STARTCHAR 00E9
ENCODING 233
SWIDTH 420 0
DWIDTH 7 0
BBX 5 10 1 0
BITMAP
10
30
20
00
70
88
F0
80
88
70
ENDCHAR
STARTCHAR 00EA
ENCODING 234
SWIDTH 420 0
DWIDTH 7 0
BBX 5 10 1 0
BITMAP
20
70
50
00
70
88
F0
80
88
70
ENDCHAR
STARTCHAR 00EB
ENCODING 235
SWIDTH 420 0
DWIDTH 7 0
BBX 5 9 1 0
BITMAP
50
50
00
70
88
F0
80
88
70
ENDCHAR
STARTCHAR 00EC
ENCODING 236
SWIDTH 180 0
DWIDTH 3 0
BBX 2 10 0 0
BITMAP
80
C0
40
00
40
40
40
40
40
40
ENDCHAR
STARTCHAR 00ED
ENCODING 237
SWIDTH 240 0
DWIDTH 4 0
BBX 2 10 1 0
BITMAP
40
C0
80
00
80
80
80
80
80
80
ENDCHAR
STARTCHAR 00EE
ENCODING 238
SWIDTH 240 0
DWIDTH 4 0
BBX 3 10 0 0
BITMAP
40
E0
A0
00
40
40
40
40
40
40
ENDCHAR
STARTCHAR 00EF
ENCODING 239
SWIDTH 240 0
DWIDTH 4 0
BBX 3 9 0 0
BITMAP
A0
A0
00
40
40
40
40
40
40
ENDCHAR
STARTCHAR 00F0
ENCODING 240
SWIDTH 780 0
DWIDTH 13 0
BBX 12 10 0 0
BITMAP
71E0
FBF0
8A10
8410
8010
4020
20C0
1180
0A00
0400
ENDCHAR
STARTCHAR 00F1
ENCODING 241
SWIDTH 420 0
DWIDTH 7 0
BBX 5 10 1 0
BITMAP
28
78
50
00
70
88
88
88
88
88
ENDCHAR
STARTCHAR 00F2
ENCODING 242
SWIDTH 420 0
DWIDTH 7 0
BBX 5 10 1 0
BITMAP
40
60
20
00
70
88
88
88
88
70
ENDCHAR
STARTCHAR 00F3
ENCODING 243
SWIDTH 420 0
DWIDTH 7 0
BBX 5 10 1 0
BITMAP
10
30
20
00
70
88
88
88
88
70
ENDCHAR
STARTCHAR 00F4
ENCODING 244
SWIDTH 420 0
DWIDTH 7 0
BBX 5 10 1 0
BITMAP
20
70
50
00
70
88
88
88
88
70
ENDCHAR
STARTCHAR 00F5
ENCODING 245
SWIDTH 420 0
DWIDTH 7 0
BBX 5 10 1 0
BITMAP
28
78
50
00
70
88
88
88
88
70
ENDCHAR
STARTCHAR 00F6
ENCODING 246
SWIDTH 420 0
DWIDTH 7 0
BBX 5 9 1 0
BITMAP
50
50
00
70
88
88
88
88
70
ENDCHAR
STARTCHAR 00F7
ENCODING 247
SWIDTH 420 0
DWIDTH 7 0
BBX 5 5 1 2
BITMAP
20
00
F8
00
20
ENDCHAR
STARTCHAR 00F8
ENCODING 248
SWIDTH 540 0
DWIDTH 9 0
BBX 7 8 0 -1
BITMAP
02
3C
4C
54
54
64
78
80
ENDCHAR
STARTCHAR 00F9
ENCODING 249
SWIDTH 420 0
DWIDTH 7 0
BBX 5 10 1 0
BITMAP
40
60
20
00
88
88
88
88
98
68
ENDCHAR
STARTCHAR 00FA
ENCODING 250
SWIDTH 420 0
DWIDTH 7 0
BBX 5 10 1 0
BITMAP
10
30
20
00
88
88
88
88
98
68
ENDCHAR
STARTCHAR 00FB
ENCODING 251
SWIDTH 420 0
DWIDTH 7 0
BBX 5 10 1 0
BITMAP
20
70
50
00
88
88
88
88
98
68
ENDCHAR
STARTCHAR 00FC
ENCODING 252
SWIDTH 420 0
DWIDTH 7 0
BBX 5 9 1 0
BITMAP
50
50
00
88
88
88
88
98
68
ENDCHAR
STARTCHAR 00FD
ENCODING 253
SWIDTH 420 0
DWIDTH 7 0
BBX 5 13 1 -3
BITMAP
10
30
20
00
88
88
88
88
78
08
08
88
70
ENDCHAR
STARTCHAR 00FE
ENCODING 254
SWIDTH 420 0
DWIDTH 7 0
BBX 5 12 1 -2
BITMAP
80
80
80
80
F0
88
88
88
88
F0
80
80
ENDCHAR
STARTCHAR 00FF
ENCODING 255
SWIDTH 420 0
DWIDTH 7 0
BBX 5 12 1 -3
BITMAP
50
50
00
88
88
88
88
78
08
08
88
70
ENDCHAR
STARTCHAR 0100
ENCODING 256
SWIDTH 780 0
DWIDTH 13 0
BBX 12 10 0 0
BITMAP
71E0
FBF0
8A10
8410
8010
4020
20C0
1180
0A00
0400
ENDCHAR
STARTCHAR 0101
ENCODING 257
SWIDTH 780 0
DWIDTH 13 0
BBX 12 10 0 0
BITMAP
71E0
FBF0
8A10
8410
8010
4020
20C0
1180
0A00
0400
ENDCHAR
STARTCHAR 0102
ENCODING 258
SWIDTH 780 0
DWIDTH 13 0
BBX 12 10 0 0
BITMAP
71E0
FBF0
8A10
8410
8010
4020
20C0
1180
0A00
0400
ENDCHAR
STARTCHAR 0103
ENCODING 259
SWIDTH 780 0
DWIDTH 13 0
BBX 12 10 0 0
BITMAP
71E0
FBF0
8A10
8410
8010
4020
20C0
1180
0A00
0400
ENDCHAR
STARTCHAR 0104
ENCODING 260
SWIDTH 780 0
DWIDTH 13 0
BBX 12 10 0 0
BITMAP
71E0
FBF0
8A10
8410
8010
4020
20C0
1180
0A00
0400
ENDCHAR
STARTCHAR 0105
ENCODING 261
SWIDTH 780 0
DWIDTH 13 0
BBX 12 10 0 0
BITMAP
71E0
FBF0
8A10
8410
8010
4020
20C0
1180
0A00
0400
ENDCHAR
STARTCHAR 0106
ENCODING 262
SWIDTH 780 0
DWIDTH 13 0
BBX 12 10 0 0
BITMAP
71E0
FBF0
8A10
8410
8010
4020
20C0
1180
0A00
0400
ENDCHAR
STARTCHAR 0107
ENCODING 263
SWIDTH 780 0
DWIDTH 13 0
BBX 12 10 0 0
BITMAP
71E0
FBF0
8A10
8410
8010
4020
20C0
1180
0A00
0400
ENDCHAR
STARTCHAR 0108
ENCODING 264
SWIDTH 780 0
DWIDTH 13 0
BBX 12 10 0 0
BITMAP
71E0
FBF0
8A10
8410
8010
4020
20C0
1180
0A00
0400
ENDCHAR
STARTCHAR 0109
ENCODING 265
SWIDTH 780 0
DWIDTH 13 0
BBX 12 10 0 0
BITMAP
71E0
FBF0
8A10
8410
8010
4020
20C0
1180
0A00
0400
ENDCHAR
STARTCHAR 010A
ENCODING 266
SWIDTH 780 0
DWIDTH 13 0
BBX 12 10 0 0
BITMAP
71E0
FBF0
8A10
8410
8010
4020
20C0
1180
0A00
0400
ENDCHAR
STARTCHAR 010B
ENCODING 267
SWIDTH 780 0
DWIDTH 13 0
BBX 12 10 0 0
BITMAP
71E0
FBF0
8A10
8410
8010
4020
20C0
1180
0A00
0400
ENDCHAR
STARTCHAR 010C
ENCODING 268
SWIDTH 780 0
DWIDTH 13 0
BBX 12 10 0 0
BITMAP
71E0
FBF0
8A10
8410
8010
4020
20C0
1180
0A00
0400
ENDCHAR
STARTCHAR 010D
ENCODING 269
SWIDTH 780 0
DWIDTH 13 0
BBX 12 10 0 0
BITMAP
71E0
FBF0
8A10
8410
8010
4020
20C0
1180
0A00
0400
ENDCHAR
STARTCHAR 010E
ENCODING 270
SWIDTH 780 0
DWIDTH 13 0
BBX 12 10 0 0
BITMAP
71E0
FBF0
8A10
8410
8010
4020
20C0
1180
0A00
0400
ENDCHAR
STARTCHAR 010F
ENCODING 271
SWIDTH 780 0
DWIDTH 13 0
BBX 12 10 0 0
BITMAP
71E0
FBF0
8A10
8410
8010
4020
20C0
1180
0A00
0400
ENDCHAR
STARTCHAR 0110
ENCODING 272
SWIDTH 780 0
DWIDTH 13 0
BBX 12 10 0 0
BITMAP
71E0
FBF0
8A10
8410
8010
4020
20C0
1180
0A00
0400
ENDCHAR
STARTCHAR 0111
ENCODING 273
SWIDTH 780 0
DWIDTH 13 0
BBX 12 10 0 0
BITMAP
71E0
FBF0
8A10
8410
8010
4020
20C0
1180
0A00
0400
ENDCHAR
STARTCHAR 0112
ENCODING 274
SWIDTH 780 0
DWIDTH 13 0
BBX 12 10 0 0
BITMAP
71E0
FBF0
8A10
8410
8010
4020
20C0
1180
0A00
0400
ENDCHAR
STARTCHAR 0113
ENCODING 275
SWIDTH 780 0
DWIDTH 13 0
BBX 12 10 0 0
BITMAP
71E0
FBF0
8A10
8410
8010
4020
20C0
1180
0A00
0400
ENDCHAR
STARTCHAR 0114
ENCODING 276
SWIDTH 780 0
DWIDTH 13 0
BBX 12 10 0 0
BITMAP
71E0
FBF0
8A10
8410
8010
4020
20C0
1180
0A00
0400
ENDCHAR
STARTCHAR 0115
ENCODING 277
SWIDTH 780 0
DWIDTH 13 0
BBX 12 10 0 0
BITMAP
71E0
FBF0
8A10
8410
8010
4020
20C0
1180
0A00
0400
ENDCHAR
STARTCHAR 0116
ENCODING 278
SWIDTH 780 0
DWIDTH 13 0
BBX 12 10 0 0
BITMAP
71E0
FBF0
8A10
8410
8010
4020
20C0
1180
0A00
0400
ENDCHAR
STARTCHAR 0117
ENCODING 279
SWIDTH 780 0
DWIDTH 13 0
BBX 12 10 0 0
BITMAP
71E0
FBF0
8A10
8410
8010
4020
20C0
1180
0A00
0400
ENDCHAR
STARTCHAR 0118
ENCODING 280
SWIDTH 780 0
DWIDTH 13 0
BBX 12 10 0 0
BITMAP
71E0
FBF0
8A10
8410
8010
4020
20C0
1180
0A00
0400
ENDCHAR
STARTCHAR 0119
ENCODING 281
SWIDTH 780 0
DWIDTH 13 0
BBX 12 10 0 0
BITMAP
71E0
FBF0
8A10
8410
8010
4020
20C0
1180
0A00
0400
ENDCHAR
STARTCHAR 011A
ENCODING 282
SWIDTH 780 0
DWIDTH 13 0
BBX 12 10 0 0
BITMAP
71E0
FBF0
8A10
8410
8010
4020
20C0
1180
0A00
0400
ENDCHAR
STARTCHAR 011B
ENCODING 283
SWIDTH 780 0
DWIDTH 13 0
BBX 12 10 0 0
BITMAP
71E0
FBF0
8A10
8410
8010
4020
20C0
1180
0A00
0400
ENDCHAR
STARTCHAR 011C
ENCODING 284
SWIDTH 780 0
DWIDTH 13 0
BBX 12 10 0 0
BITMAP
71E0
FBF0
8A10
8410
8010
4020
20C0
1180
0A00
0400
ENDCHAR
STARTCHAR 011D
ENCODING 285
SWIDTH 780 0
DWIDTH 13 0
BBX 12 10 0 0
BITMAP
71E0
FBF0
8A10
8410
8010
4020
20C0
1180
0A00
0400
ENDCHAR
STARTCHAR 011E
ENCODING 286
SWIDTH 780 0
DWIDTH 13 0
BBX 12 10 0 0
BITMAP
71E0
FBF0
8A10
8410
8010
4020
20C0
1180
0A00
0400
ENDCHAR
STARTCHAR 011F
ENCODING 287
SWIDTH 780 0
DWIDTH 13 0
BBX 12 10 0 0
BITMAP
71E0
FBF0
8A10
8410
8010
4020
20C0
1180
0A00
0400
ENDCHAR
STARTCHAR 0120
ENCODING 288
SWIDTH 780 0
DWIDTH 13 0
BBX 12 10 0 0
BITMAP
71E0
FBF0
8A10
8410
8010
4020
20C0
1180
0A00
0400
ENDCHAR
STARTCHAR 0121
ENCODING 289
SWIDTH 780 0
DWIDTH 13 0
BBX 12 10 0 0
BITMAP
71E0
FBF0
8A10
8410
8010
4020
20C0
1180
0A00
0400
ENDCHAR
STARTCHAR 0122
ENCODING 290
SWIDTH 780 0
DWIDTH 13 0
BBX 12 10 0 0
BITMAP
71E0
FBF0
8A10
8410
8010
4020
20C0
1180
0A00
0400
ENDCHAR
STARTCHAR 0123
ENCODING 291
SWIDTH 780 0
DWIDTH 13 0
BBX 12 10 0 0
BITMAP
71E0
FBF0
8A10
8410
8010
4020
20C0
1180
0A00
0400
ENDCHAR
STARTCHAR 0124
ENCODING 292
SWIDTH 780 0
DWIDTH 13 0
BBX 12 10 0 0
BITMAP
71E0
FBF0
8A10
8410
8010
4020
20C0
1180
0A00
0400
ENDCHAR
STARTCHAR 0125
ENCODING 293
SWIDTH 780 0
DWIDTH 13 0
BBX 12 10 0 0
BITMAP
71E0
FBF0
8A10
8410
8010
4020
20C0
1180
0A00
0400
ENDCHAR
STARTCHAR 0126
ENCODING 294
SWIDTH 780 0
DWIDTH 13 0
BBX 12 10 0 0
BITMAP
71E0
FBF0
8A10
8410
8010
4020
20C0
1180
0A00
0400
ENDCHAR
STARTCHAR 0127
ENCODING 295
SWIDTH 780 0
DWIDTH 13 0
BBX 12 10 0 0
BITMAP
71E0
FBF0
8A10
8410
8010
4020
20C0
1180
0A00
0400
ENDCHAR
STARTCHAR 0128
ENCODING 296
SWIDTH 780 0
DWIDTH 13 0
BBX 12 10 0 0
BITMAP
71E0
FBF0
8A10
8410
8010
4020
20C0
1180
0A00
0400
ENDCHAR
STARTCHAR 0129
ENCODING 297
SWIDTH 780 0
DWIDTH 13 0
BBX 12 10 0 0
BITMAP
71E0
FBF0
8A10
8410
8010
4020
20C0
1180
0A00
0400
ENDCHAR
STARTCHAR 012A
ENCODING 298
SWIDTH 780 0
DWIDTH 13 0
BBX 12 10 0 0
BITMAP
71E0
FBF0
8A10
8410
8010
4020
20C0
1180
0A00
0400
ENDCHAR
STARTCHAR 012B
ENCODING 299
SWIDTH 780 0
DWIDTH 13 0
BBX 12 10 0 0
BITMAP
71E0
FBF0
8A10
8410
8010
4020
20C0
1180
0A00
0400
ENDCHAR
STARTCHAR 012C
ENCODING 300
SWIDTH 780 0
DWIDTH 13 0
BBX 12 10 0 0
BITMAP
71E0
FBF0
8A10
8410
8010
4020
20C0
1180
0A00
0400
ENDCHAR
STARTCHAR 012D
ENCODING 301
SWIDTH 780 0
DWIDTH 13 0
BBX 12 10 0 0
BITMAP
71E0
FBF0
8A10
8410
8010
4020
20C0
1180
0A00
0400
ENDCHAR
STARTCHAR 012E
ENCODING 302
SWIDTH 780 0
DWIDTH 13 0
BBX 12 10 0 0
BITMAP
71E0
FBF0
8A10
8410
8010
4020
20C0
1180
0A00
0400
ENDCHAR
STARTCHAR 012F
ENCODING 303
SWIDTH 780 0
DWIDTH 13 0
BBX 12 10 0 0
BITMAP
71E0
FBF0
8A10
8410
8010
4020
20C0
1180
0A00
0400
ENDCHAR
STARTCHAR 0130
ENCODING 304
SWIDTH 780 0
DWIDTH 13 0
BBX 12 10 0 0
BITMAP
71E0
FBF0
8A10
8410
8010
4020
20C0
1180
0A00
0400
ENDCHAR
STARTCHAR 0131
ENCODING 305
SWIDTH 780 0
DWIDTH 13 0
BBX 12 10 0 0
BITMAP
71E0
FBF0
8A10
8410
8010
4020
20C0
1180
0A00
0400
ENDCHAR
STARTCHAR 0132
ENCODING 306
SWIDTH 780 0
DWIDTH 13 0
BBX 12 10 0 0
BITMAP
71E0
FBF0
8A10
8410
8010
4020
20C0
1180
0A00
0400
ENDCHAR
STARTCHAR 0133
ENCODING 307
SWIDTH 780 0
DWIDTH 13 0
BBX 12 10 0 0
BITMAP
71E0
FBF0
8A10
8410
8010
4020
20C0
1180
0A00
0400
ENDCHAR
STARTCHAR 0134
ENCODING 308
SWIDTH 780 0
DWIDTH 13 0
BBX 12 10 0 0
BITMAP
71E0
FBF0
8A10
8410
8010
4020
20C0
1180
0A00
0400
ENDCHAR
STARTCHAR 0135
ENCODING 309
SWIDTH 780 0
DWIDTH 13 0
BBX 12 10 0 0
BITMAP
71E0
FBF0
8A10
8410
8010
4020
20C0
1180
0A00
0400
ENDCHAR
STARTCHAR 0136
ENCODING 310
SWIDTH 780 0
DWIDTH 13 0
BBX 12 10 0 0
BITMAP
71E0
FBF0
8A10
8410
8010
4020
20C0
1180
0A00
0400
ENDCHAR
STARTCHAR 0137
ENCODING 311
SWIDTH 780 0
DWIDTH 13 0
BBX 12 10 0 0
BITMAP
71E0
FBF0
8A10
8410
8010
4020
20C0
1180
0A00
0400
ENDCHAR
STARTCHAR 0138
ENCODING 312
SWIDTH 780 0
DWIDTH 13 0
BBX 12 10 0 0
BITMAP
71E0
FBF0
8A10
8410
8010
4020
20C0
1180
0A00
0400
ENDCHAR
STARTCHAR 0139
ENCODING 313
SWIDTH 780 0
DWIDTH 13 0
BBX 12 10 0 0
BITMAP
71E0
FBF0
8A10
8410
8010
4020
20C0
1180
0A00
0400
ENDCHAR
STARTCHAR 013A
ENCODING 314
SWIDTH 780 0
DWIDTH 13 0
BBX 12 10 0 0
BITMAP
71E0
FBF0
FBF0
FFF0
FFF0
7FE0
3FC0
1F80
0E00
0400
ENDCHAR
STARTCHAR 013B
ENCODING 315
SWIDTH 780 0
DWIDTH 13 0
BBX 12 10 0 0
BITMAP
71E0
FBF0
FBF0
FFF0
FFF0
7FE0
3FC0
1F80
0E00
0400
ENDCHAR
STARTCHAR 013C
ENCODING 316
SWIDTH 780 0
DWIDTH 13 0
BBX 12 10 0 0
BITMAP
71E0
FBF0
FBF0
FFF0
FFF0
7FE0
3FC0
1F80
0E00
0400
ENDCHAR
STARTCHAR 013D
ENCODING 317
SWIDTH 780 0
DWIDTH 13 0
BBX 12 10 0 0
BITMAP
71E0
FBF0
FBF0
FFF0
FFF0
7FE0
3FC0
1F80
0E00
0400
ENDCHAR
STARTCHAR 013E
ENCODING 318
SWIDTH 780 0
DWIDTH 13 0
BBX 12 10 0 0
BITMAP
71E0
FBF0
FBF0
FFF0
FFF0
7FE0
3FC0
1F80
0E00
0400
ENDCHAR
STARTCHAR 013F
ENCODING 319
SWIDTH 780 0
DWIDTH 13 0
BBX 12 10 0 0
BITMAP
71E0
FBF0
FBF0
FFF0
FFF0
7FE0
3FC0
1F80
0E00
0400
ENDCHAR
STARTCHAR 0140
ENCODING 320
SWIDTH 780 0
DWIDTH 13 0
BBX 12 10 0 0
BITMAP
71E0
FBF0
FBF0
FFF0
FFF0
7FE0
3FC0
1F80
0E00
0400
ENDCHAR
STARTCHAR 0141
ENCODING 321
SWIDTH 780 0
DWIDTH 13 0
BBX 12 10 0 0
BITMAP
71E0
FBF0
FBF0
FFF0
FFF0
7FE0
3FC0
1F80
0E00
0400
ENDCHAR
STARTCHAR 0142
ENCODING 322
SWIDTH 780 0
DWIDTH 13 0
BBX 12 10 0 0
BITMAP
71E0
FBF0
FBF0
FFF0
FFF0
7FE0
3FC0
1F80
0E00
0400
ENDCHAR
STARTCHAR 0143
ENCODING 323
SWIDTH 780 0
DWIDTH 13 0
BBX 12 10 0 0
BITMAP
71E0
FBF0
FBF0
FFF0
FFF0
7FE0
3FC0
1F80
0E00
0400
ENDCHAR
STARTCHAR 0144
ENCODING 324
SWIDTH 780 0
DWIDTH 13 0
BBX 12 10 0 0
BITMAP
71E0
FBF0
FBF0
FFF0
FFF0
7FE0
3FC0
1F80
0E00
0400
ENDCHAR
STARTCHAR 0145
ENCODING 325
SWIDTH 780 0
DWIDTH 13 0
BBX 12 10 0 0
BITMAP
71E0
FBF0
FBF0
FFF0
FFF0
7FE0
3FC0
1F80
0E00
0400
ENDCHAR
STARTCHAR 0146
ENCODING 326
SWIDTH 780 0
DWIDTH 13 0
BBX 12 10 0 0
BITMAP
71E0
FBF0
FBF0
FFF0
FFF0
7FE0
3FC0
1F80
0E00
0400
ENDCHAR
STARTCHAR 0147
ENCODING 327
SWIDTH 780 0
DWIDTH 13 0
BBX 12 10 0 0
BITMAP
71E0
FBF0
FBF0
FFF0
FFF0
7FE0
3FC0
1F80
0E00
0400
ENDCHAR
STARTCHAR 0148
ENCODING 328
SWIDTH 780 0
DWIDTH 13 0
BBX 12 10 0 0
BITMAP
71E0
FBF0
FBF0
FFF0
FFF0
7FE0
3FC0
1F80
0E00
0400
ENDCHAR
STARTCHAR 0149
ENCODING 329
SWIDTH 780 0
DWIDTH 13 0
BBX 12 10 0 0
BITMAP
71E0
FBF0
FBF0
FFF0
FFF0
7FE0
3FC0
1F80
0E00
0400
ENDCHAR
STARTCHAR 014A
ENCODING 330
SWIDTH 780 0
DWIDTH 13 0
BBX 12 10 0 0
BITMAP
71E0
FBF0
FBF0
FFF0
FFF0
7FE0
3FC0
1F80
0E00
0400
ENDCHAR
STARTCHAR 014B
ENCODING 331
SWIDTH 780 0
DWIDTH 13 0
BBX 12 10 0 0
BITMAP
71E0
FBF0
FBF0
FFF0
FFF0
7FE0
3FC0
1F80
0E00
0400
ENDCHAR
STARTCHAR 014C
ENCODING 332
SWIDTH 780 0
DWIDTH 13 0
BBX 12 10 0 0
BITMAP
71E0
FBF0
FBF0
FFF0
FFF0
7FE0
3FC0
1F80
0E00
0400
ENDCHAR
STARTCHAR 014D
ENCODING 333
SWIDTH 780 0
DWIDTH 13 0
BBX 12 10 0 0
BITMAP
71E0
FBF0
FBF0
FFF0
FFF0
7FE0
3FC0
1F80
0E00
0400
ENDCHAR
STARTCHAR 014E
ENCODING 334
SWIDTH 780 0
DWIDTH 13 0
BBX 12 10 0 0
BITMAP
71E0
FBF0
FBF0
FFF0
FFF0
7FE0
3FC0
1F80
0E00
0400
ENDCHAR
STARTCHAR 014F
ENCODING 335
SWIDTH 780 0
DWIDTH 13 0
BBX 12 10 0 0
BITMAP
71E0
FBF0
FBF0
FFF0
FFF0
7FE0
3FC0
1F80
0E00
0400
ENDCHAR
STARTCHAR 0150
ENCODING 336
SWIDTH 780 0
DWIDTH 13 0
BBX 12 10 0 0
BITMAP
71E0
FBF0
FBF0
FFF0
FFF0
7FE0
3FC0
1F80
0E00
0400
ENDCHAR
STARTCHAR 0151
ENCODING 337
SWIDTH 780 0
DWIDTH 13 0
BBX 12 10 0 0
BITMAP
71E0
FBF0
FBF0
FFF0
FFF0
7FE0
3FC0
1F80
0E00
0400
ENDCHAR
STARTCHAR 0152
ENCODING 338
SWIDTH 780 0
DWIDTH 13 0
BBX 12 10 0 0
BITMAP
71E0
FBF0
FBF0
FFF0
FFF0
7FE0
3FC0
1F80
0E00
0400
ENDCHAR
STARTCHAR 0153
ENCODING 339
SWIDTH 780 0
DWIDTH 13 0
BBX 12 10 0 0
BITMAP
71E0
FBF0
FBF0
FFF0
FFF0
7FE0
3FC0
1F80
0E00
0400
ENDCHAR
STARTCHAR 0154
ENCODING 340
SWIDTH 780 0
DWIDTH 13 0
BBX 12 10 0 0
BITMAP
71E0
FBF0
FBF0
FFF0
FFF0
7FE0
3FC0
1F80
0E00
0400
ENDCHAR
STARTCHAR 0155
ENCODING 341
SWIDTH 780 0
DWIDTH 13 0
BBX 12 10 0 0
BITMAP
71E0
FBF0
FBF0
FFF0
FFF0
7FE0
3FC0
1F80
0E00
0400
ENDCHAR
STARTCHAR 0156
ENCODING 342
SWIDTH 780 0
DWIDTH 13 0
BBX 12 10 0 0
BITMAP
71E0
FBF0
FBF0
FFF0
FFF0
7FE0
3FC0
1F80
0E00
0400
ENDCHAR
STARTCHAR 0157
ENCODING 343
SWIDTH 780 0
DWIDTH 13 0
BBX 12 10 0 0
BITMAP
71E0
FBF0
FBF0
FFF0
FFF0
7FE0
3FC0
1F80
0E00
0400
ENDCHAR
STARTCHAR 0158
ENCODING 344
SWIDTH 780 0
DWIDTH 13 0
BBX 12 10 0 0
BITMAP
71E0
FBF0
FBF0
FFF0
FFF0
7FE0
3FC0
1F80
0E00
0400
ENDCHAR
STARTCHAR 0159
ENCODING 345
SWIDTH 780 0
DWIDTH 13 0
BBX 12 10 0 0
BITMAP
71E0
FBF0
FBF0
FFF0
FFF0
7FE0
3FC0
1F80
0E00
0400
ENDCHAR
STARTCHAR 015A
ENCODING 346
SWIDTH 780 0
DWIDTH 13 0
BBX 12 10 0 0
BITMAP
71E0
FBF0
FBF0
FFF0
FFF0
7FE0
3FC0
1F80
0E00
0400
ENDCHAR
STARTCHAR 015B
ENCODING 347
SWIDTH 780 0
DWIDTH 13 0
BBX 12 10 0 0
BITMAP
71E0
FBF0
FBF0
FFF0
FFF0
7FE0
3FC0
1F80
0E00
0400
ENDCHAR
STARTCHAR 015C
ENCODING 348
SWIDTH 780 0
DWIDTH 13 0
BBX 12 10 0 0
BITMAP
71E0
FBF0
FBF0
FFF0
FFF0
7FE0
3FC0
1F80
0E00
0400
ENDCHAR
STARTCHAR 015D
ENCODING 349
SWIDTH 780 0
DWIDTH 13 0
BBX 12 10 0 0
BITMAP
71E0
FBF0
FBF0
FFF0
FFF0
7FE0
3FC0
1F80
0E00
0400
ENDCHAR
STARTCHAR 015E
ENCODING 350
SWIDTH 780 0
DWIDTH 13 0
BBX 12 10 0 0
BITMAP
71E0
FBF0
FBF0
FFF0
FFF0
7FE0
3FC0
1F80
0E00
0400
ENDCHAR
STARTCHAR 015F
ENCODING 351
SWIDTH 780 0
DWIDTH 13 0
BBX 12 10 0 0
BITMAP
71E0
FBF0
FBF0
FFF0
FFF0
7FE0
3FC0
1F80
0E00
0400
ENDCHAR
STARTCHAR 0160
ENCODING 352
SWIDTH 780 0
DWIDTH 13 0
BBX 12 10 0 0
BITMAP
71E0
FBF0
FBF0
FFF0
FFF0
7FE0
3FC0
1F80
0E00
0400
ENDCHAR
STARTCHAR 0161
ENCODING 353
SWIDTH 780 0
DWIDTH 13 0
BBX 12 10 0 0
BITMAP
71E0
FBF0
FBF0
FFF0
FFF0
7FE0
3FC0
1F80
0E00
0400
ENDCHAR
STARTCHAR 0162
ENCODING 354
SWIDTH 780 0
DWIDTH 13 0
BBX 12 10 0 0
BITMAP
71E0
FBF0
FBF0
FFF0
FFF0
7FE0
3FC0
1F80
0E00
0400
ENDCHAR
STARTCHAR 0163
ENCODING 355
SWIDTH 780 0
DWIDTH 13 0
BBX 12 10 0 0
BITMAP
71E0
FBF0
FBF0
FFF0
FFF0
7FE0
3FC0
1F80
0E00
0400
ENDCHAR
STARTCHAR 0164
ENCODING 356
SWIDTH 780 0
DWIDTH 13 0
BBX 12 10 0 0
BITMAP
71E0
FBF0
FBF0
FFF0
FFF0
7FE0
3FC0
1F80
0E00
0400
ENDCHAR
STARTCHAR 0165
ENCODING 357
SWIDTH 780 0
DWIDTH 13 0
BBX 12 10 0 0
BITMAP
71E0
FBF0
FBF0
FFF0
FFF0
7FE0
3FC0
1F80
0E00
0400
ENDCHAR
STARTCHAR 0166
ENCODING 358
SWIDTH 780 0
DWIDTH 13 0
BBX 12 10 0 0
BITMAP
71E0
FBF0
FBF0
FFF0
FFF0
7FE0
3FC0
1F80
0E00
0400
ENDCHAR
STARTCHAR 0167
ENCODING 359
SWIDTH 780 0
DWIDTH 13 0
BBX 12 10 0 0
BITMAP
71E0
FBF0
FBF0
FFF0
FFF0
7FE0
3FC0
1F80
0E00
0400
ENDCHAR
STARTCHAR 0168
ENCODING 360
SWIDTH 780 0
DWIDTH 13 0
BBX 12 10 0 0
BITMAP
71E0
FBF0
FBF0
FFF0
FFF0
7FE0
3FC0
1F80
0E00
0400
ENDCHAR
STARTCHAR 0169
ENCODING 361
SWIDTH 780 0
DWIDTH 13 0
BBX 12 10 0 0
BITMAP
71E0
FBF0
FBF0
FFF0
FFF0
7FE0
3FC0
1F80
0E00
0400
ENDCHAR
STARTCHAR 016A
ENCODING 362
SWIDTH 780 0
DWIDTH 13 0
BBX 12 10 0 0
BITMAP
71E0
FBF0
FBF0
FFF0
FFF0
7FE0
3FC0
1F80
0E00
0400
ENDCHAR
STARTCHAR 016B
ENCODING 363
SWIDTH 780 0
DWIDTH 13 0
BBX 12 10 0 0
BITMAP
71E0
FBF0
FBF0
FFF0
FFF0
7FE0
3FC0
1F80
0E00
0400
ENDCHAR
STARTCHAR 016C
ENCODING 364
SWIDTH 780 0
DWIDTH 13 0
BBX 12 10 0 0
BITMAP
71E0
FBF0
FBF0
FFF0
FFF0
7FE0
3FC0
1F80
0E00
0400
ENDCHAR
STARTCHAR 016D
ENCODING 365
SWIDTH 780 0
DWIDTH 13 0
BBX 12 10 0 0
BITMAP
71E0
FBF0
FBF0
FFF0
FFF0
7FE0
3FC0
1F80
0E00
0400
ENDCHAR
STARTCHAR 016E
ENCODING 366
SWIDTH 780 0
DWIDTH 13 0
BBX 12 10 0 0
BITMAP
71E0
FBF0
FBF0
FFD0
FFD0
7FA0
3FC0
1F80
0E00
0400
ENDCHAR
STARTCHAR 016F
ENCODING 367
SWIDTH 780 0
DWIDTH 13 0
BBX 12 10 0 0
BITMAP
71E0
FBF0
FBF0
FFD0
FFD0
7FA0
3FC0
1F80
0E00
0400
ENDCHAR
STARTCHAR 0170
ENCODING 368
SWIDTH 780 0
DWIDTH 13 0
BBX 12 10 0 0
BITMAP
71E0
FBF0
FBF0
FFD0
FFD0
7FA0
3FC0
1F80
0E00
0400
ENDCHAR
STARTCHAR 0171
ENCODING 369
SWIDTH 780 0
DWIDTH 13 0
BBX 12 10 0 0
BITMAP
71E0
FBF0
FBF0
FFD0
FFD0
7FA0
3FC0
1F80
0E00
0400
ENDCHAR
STARTCHAR 0172
ENCODING 370
SWIDTH 780 0
DWIDTH 13 0
BBX 12 10 0 0
BITMAP
71E0
FBF0
FBF0
FFD0
FFD0
7FA0
3FC0
1F80
0E00
0400
ENDCHAR
STARTCHAR 0173
ENCODING 371
SWIDTH 780 0
DWIDTH 13 0
BBX 12 10 0 0
BITMAP
71E0
FBF0
FBF0
FFD0
FFD0
7FA0
3FC0
1F80
0E00
0400
ENDCHAR
STARTCHAR 0174
ENCODING 372
SWIDTH 780 0
DWIDTH 13 0
BBX 12 10 0 0
BITMAP
71E0
FBF0
FBF0
FFD0
FFD0
7FA0
3FC0
1F80
0E00
0400
ENDCHAR
STARTCHAR 0175
ENCODING 373
SWIDTH 780 0
DWIDTH 13 0
BBX 12 10 0 0
BITMAP
71E0
FBF0
FBF0
FFD0
FFD0
7FA0
3FC0
1F80
0E00
0400
ENDCHAR
STARTCHAR 0176
ENCODING 374
SWIDTH 780 0
DWIDTH 13 0
BBX 12 10 0 0
BITMAP
71E0
FBF0
FBF0
FFD0
FFD0
7FA0
3FC0
1F80
0E00
0400
ENDCHAR
STARTCHAR 0177
ENCODING 375
SWIDTH 780 0
DWIDTH 13 0
BBX 12 10 0 0
BITMAP
71E0
FBF0
FBF0
FFD0
FFD0
7FA0
3FC0
1F80
0E00
0400
ENDCHAR
STARTCHAR 0178
ENCODING 376
SWIDTH 780 0
DWIDTH 13 0
BBX 12 10 0 0
BITMAP
71E0
FBF0
FBF0
FFD0
FFD0
7FA0
3FC0
1F80
0E00
0400
ENDCHAR
STARTCHAR 0179
ENCODING 377
SWIDTH 780 0
DWIDTH 13 0
BBX 12 10 0 0
BITMAP
71E0
FBF0
FBF0
FFD0
FFD0
7FA0
3FC0
1F80
0E00
0400
ENDCHAR
STARTCHAR 017A
ENCODING 378
SWIDTH 780 0
DWIDTH 13 0
BBX 12 10 0 0
BITMAP
71E0
FBF0
FBF0
FFD0
FFD0
7FA0
3FC0
1F80
0E00
0400
ENDCHAR
STARTCHAR 017B
ENCODING 379
SWIDTH 780 0
DWIDTH 13 0
BBX 12 10 0 0
BITMAP
71E0
FBF0
FBF0
FFD0
FFD0
7FA0
3FC0
1F80
0E00
0400
ENDCHAR
STARTCHAR 017C
ENCODING 380
SWIDTH 780 0
DWIDTH 13 0
BBX 12 10 0 0
BITMAP
71E0
FBF0
FBF0
FFD0
FFD0
7FA0
3FC0
1F80
0E00
0400
ENDCHAR
STARTCHAR 017D
ENCODING 381
SWIDTH 780 0
DWIDTH 13 0
BBX 12 10 0 0
BITMAP
71E0
FBF0
FBF0
FFD0
FFD0
7FA0
3FC0
1F80
0E00
0400
ENDCHAR
STARTCHAR 017E
ENCODING 382
SWIDTH 780 0
DWIDTH 13 0
BBX 12 10 0 0
BITMAP
71E0
FBF0
FBF0
FFD0
FFD0
7FA0
3FC0
1F80
0E00
0400
ENDCHAR
STARTCHAR 20AC
ENCODING 8364
SWIDTH 780 0
DWIDTH 13 0
BBX 12 10 0 0
BITMAP
71E0
FBF0
8A10
8410
8010
4020
20C0
1180
0A00
0400
ENDCHAR
STARTCHAR 3000
ENCODING 12288
SWIDTH 1020 0
DWIDTH 17 0
BBX 0 0 0 0
BITMAP
ENDCHAR
ENDFONT
